<?xml version="1.0" encoding="UTF-8"?>
<svg xmlns="http://www.w3.org/2000/svg" version="1.1" viewBox="0 0 835.5 823.08">
  <!-- Generator: Adobe Illustrator 30.5.1, SVG Export Plug-In . SVG Version: 2.1.4 Build 3)  -->
  <defs>
    <style>
      .st0 {
        isolation: isolate;
      }

      .st1 {
        mix-blend-mode: hard-light;
      }

      .st2 {
        fill: #fff;
      }
    </style>
  </defs>
  <g class="st0">
    <g id="Layer_1">
      <g>
        <g class="st1">
          <g>
            <g>
              <path class="st2" d="M161.28,656.9c-1.39.19-2.65.81-3.66,1.81-1.22,1.21-1.9,2.83-1.9,4.55,0,1.72.66,3.33,1.87,4.55,86.69,87.16,210.2,124.59,330.51,100.12,84.86-17.25,160.9-64.29,214.11-132.45,52.63-67.42,79.95-151.36,76.93-236.36-.06-1.72-.79-3.31-2.04-4.48-1.25-1.17-2.9-1.78-4.61-1.73-3.62.2-6.33,3.16-6.2,6.66,2.91,81.98-23.45,162.95-74.22,227.98-51.33,65.75-124.67,111.13-206.53,127.76-115.99,23.6-235.21-12.52-318.83-96.59-1.21-1.22-2.82-1.89-4.54-1.9-.3,0-.6.02-.89.06Z"/>
              <path class="st2" d="M464.72,776.73c-113.99,15.41-228.52-23.11-310.51-105.55-2.11-2.12-3.26-4.94-3.25-7.93,0-2.98,1.18-5.8,3.31-7.92,1.73-1.73,3.94-2.83,6.38-3.16l1.5-.11c3.03,0,5.85,1.18,7.96,3.31,82.48,82.94,199.97,118.49,314.48,95.27,80.74-16.4,153.1-61.16,203.72-126.02,50.08-64.15,76.07-144.01,73.21-224.88-.23-6.15,4.12-11.31,10.72-11.59,3.08-.12,5.93.95,8.13,2.99,2.18,2.04,3.44,4.8,3.56,7.8,3.06,86.12-24.62,171.16-77.94,239.47-53.91,69.06-130.94,116.72-216.93,134.2-8.09,1.65-16.22,3.02-24.33,4.12ZM161.92,661.63c-.36.05-.67.2-.92.46-.34.33-.5.73-.51,1.17,0,.46.16.87.49,1.18,85.55,86.02,207.46,122.92,326.17,98.81,83.76-17.03,158.8-63.45,211.31-130.71,51.95-66.55,78.9-149.38,75.92-233.25-.01-.46-.19-.86-.53-1.17-.33-.3-.74-.46-1.18-.43-.99-.06-1.64.79-1.61,1.71,2.95,83.11-23.77,165.18-75.22,231.09-52.02,66.65-126.38,112.65-209.34,129.51-117.54,23.95-238.39-12.68-323.16-97.9-.32-.32-.72-.49-1.17-.49l-.24.02Z"/>
            </g>
            <g>
              <path class="st2" d="M367.11,51.21c-7.95,1.07-15.98,2.43-23.87,4.04-71.66,14.56-136.45,49.79-187.37,101.87-49.7,50.83-83.25,114.43-97.02,183.93-.68,3.48,1.58,6.87,5.06,7.56.84.17,1.7.18,2.53,0,2.55-.52,4.53-2.51,5.04-5.06,13.28-67.04,45.64-128.39,93.59-177.43,49.12-50.23,111.62-84.21,180.74-98.26,84.99-17.29,172.95-2.61,247.68,41.38,1.48.87,3.25,1.11,4.88.68,1.67-.43,3.06-1.48,3.93-2.96.87-1.48,1.11-3.21.68-4.88-.43-1.67-1.48-3.07-2.96-3.94-69.87-41.12-152.58-57.79-232.9-46.94Z"/>
              <path class="st2" d="M66.59,353.43c-1.14.15-2.36.11-3.61-.14-2.92-.57-5.46-2.26-7.12-4.77-1.67-2.48-2.26-5.47-1.69-8.41,13.96-70.41,47.95-134.84,98.29-186.34,51.59-52.77,117.23-88.46,189.83-103.21,88.98-18.09,182.36-2.31,260.14,43.47,2.58,1.51,4.42,3.95,5.17,6.84.76,2.9.33,5.92-1.19,8.49-1.51,2.57-3.94,4.41-6.84,5.16-2.85.73-5.95.32-8.49-1.18-73.71-43.38-160.44-57.93-244.32-40.81-68.17,13.85-129.82,47.37-178.27,96.92-47.3,48.36-79.23,108.88-92.33,175.02-.88,4.44-4.32,7.9-8.76,8.81-.27.05-.53.11-.81.15ZM367.75,55.94c-7.83,1.06-15.76,2.4-23.56,3.98-70.73,14.37-134.67,49.14-184.91,100.54-49.05,50.17-82.16,112.93-95.76,181.52-.15.76.54,1.8,1.31,1.95,1.35.02,1.83-.63,1.97-1.31,13.45-67.96,46.26-130.14,94.86-179.84,49.8-50.93,113.14-85.36,183.19-99.6,86.17-17.53,175.31-2.63,251.05,41.95.37.21.8.29,1.25.17s.8-.37,1.02-.76c.24-.4.29-.83.19-1.27-.12-.44-.38-.8-.77-1.02-68.95-40.58-150.58-57.03-229.84-46.32Z"/>
            </g>
            <g>
              <path class="st2" d="M822.26,382.24c-3.54.48-6.18,3.62-5.97,7.24,5.37,95.28-23.76,189.73-82.05,265.95-58.85,76.96-143.61,129.98-238.67,149.29-1.81.37-3.36,1.42-4.38,2.96-1.02,1.54-1.38,3.38-1.01,5.19.73,3.58,4.12,5.95,7.69,5.47.15-.02.31-.04.46-.07h0c98.33-19.99,186.01-74.84,246.89-154.44,60.29-78.84,90.43-176.55,84.86-275.12-.21-3.8-3.49-6.72-7.29-6.51-.18.01-.36.03-.53.05Z"/>
              <path class="st2" d="M499.22,822.95c-6.82.92-12.49-3.14-13.72-9.13-.62-3.05-.01-6.16,1.7-8.77,1.72-2.6,4.36-4.38,7.41-5,93.93-19.09,177.68-71.47,235.83-147.52,57.59-75.3,86.38-168.62,81.08-262.77-.35-6.05,4.08-11.42,10.09-12.24l.78-.08c3.23-.18,6.23.86,8.55,2.94,2.33,2.08,3.72,4.94,3.88,8.05,5.64,99.71-24.84,198.53-85.83,278.29-61.59,80.52-150.27,136.01-249.72,156.22h-.06ZM822.26,382.24l.64,4.73c-1.1.15-1.91,1.13-1.85,2.23,5.44,96.43-24.04,192.01-83.02,269.12-59.55,77.88-145.32,131.53-241.5,151.07-.57.11-1.03.42-1.34.91-.33.49-.43,1.05-.32,1.6.22,1.09,1.28,1.85,2.37,1.7,97.34-19.79,184.01-74,244.2-152.7,59.6-77.93,89.39-174.52,83.88-271.95-.05-.76-.47-1.24-.72-1.47-.25-.22-.77-.58-1.54-.54l-.8-4.71Z"/>
            </g>
            <g>
              <path class="st2" d="M333.48,4.84c-.16.02-.31.05-.46.08-85.47,17.37-161.94,60.22-221.12,123.89C53.99,191.12,16.97,268.36,4.84,352.18c-.54,3.77,2.08,7.28,5.85,7.83.79.11,1.58.1,2.37-.07h0c2.85-.58,5.04-2.9,5.46-5.78,11.72-81.02,47.51-155.69,103.5-215.94,57.2-61.55,131.11-102.96,213.74-119.76,1.81-.37,3.36-1.42,4.38-2.96,1.02-1.54,1.38-3.38,1.01-5.19-.36-1.81-1.41-3.37-2.95-4.38-1.4-.93-3.07-1.31-4.73-1.09Z"/>
              <path class="st2" d="M13.19,364.76c-1.03.14-2.13.13-3.22-.04-3.05-.43-5.78-2.06-7.64-4.56-1.87-2.5-2.65-5.58-2.2-8.66,12.27-84.8,49.72-162.93,108.28-225.94C168.27,61.14,245.6,17.81,332.07.24l.77-.13c2.79-.38,5.63.27,8,1.84,2.6,1.74,4.38,4.36,5,7.41.62,3.05.01,6.16-1.7,8.77-1.74,2.6-4.36,4.38-7.41,5-81.66,16.59-154.69,57.51-211.2,118.33-55.33,59.54-90.7,133.33-102.28,213.37-.7,4.88-4.42,8.81-9.24,9.78-.27.05-.53.11-.81.15ZM333.4,4.84l.55,4.75c-84.47,17.17-160.05,59.52-218.55,122.47C58.15,193.63,21.56,269.99,9.56,352.86c-.1.76.21,1.32.41,1.58.2.27.64.72,1.39.84,1.63-.22,2.3-.93,2.44-1.82,11.85-81.97,48.07-157.53,104.72-218.51C176.4,72.68,251.19,30.77,334.82,13.78c.57-.11,1.03-.43,1.35-.92.32-.48.42-1.04.31-1.59-.12-.58-.42-1.04-.92-1.36-.43-.29-.94-.41-1.45-.34l-.71-4.72Z"/>
            </g>
          </g>
        </g>
        <g>
          <path class="st2" d="M422.77,637.52c-14.26,0-25.86-11.6-25.86-25.85s11.6-25.85,25.86-25.85,25.85,11.6,25.85,25.85-11.6,25.85-25.85,25.85ZM422.77,600.14c-6.37,0-11.54,5.17-11.54,11.53s5.17,11.53,11.54,11.53,11.53-5.17,11.53-11.53-5.17-11.53-11.53-11.53Z"/>
          <g id="CCsdIz.tif">
            <path class="st2" d="M380.26,536.87c-31.13-9.73-56.62-27.52-75.88-53.74-18.12-24.67-27.83-52.54-28.08-83.3-.2-24.18.14-48.36.39-72.54.15-14.02-1.62-27.68-5.57-41.17-4.55-15.57-.83-29.43,10.09-41.38.76-.83,1.4-1.76,2.1-2.65,5.39-3.06,10.78-6.12,16.18-9.19,24.1-3.09,45.64,7.58,68.66,12.53,4.63-11.06,11.24-21.09,20.72-29.22,21.49-18.44,55.42-16.03,73.79,5.45,3.88,4.53,4.05,10.38.42,14.24-3.93,4.17-9.79,4.21-14.59.08-.73-.63-1.41-1.31-2.12-1.97-15.77-14.54-35.49-13.72-49.53,2.52-4.09,4.72-7,10.46-10.84,16.34,3.45,1.66,5.87,2.71,8.19,3.96,5.53,2.95,7.65,8.54,5.26,13.61-2.32,4.9-7.88,7.29-13.29,4.69-21.48-10.34-44.39-15.97-67.35-21.7-18.93-4.72-33.33,8.93-28.27,27.68,4.42,16.37,6.35,32.94,6.06,49.88-.37,21.47-.49,42.95-.49,64.42.01,86.83,81.51,146.85,164.48,121.22,48.81-15.08,84.59-61.78,86.44-113.8.86-24.16.61-48.35.71-72.53.07-15.79,1.93-31.29,6.75-46.38,2.67-8.34,1.89-16.09-4.26-22.73-6.44-6.96-14.4-8.6-23.35-6.11-18.03,5-36.52,8.78-54.01,15.25-41.5,15.34-73.24,57.33-74.54,98.97-.53,17.04-19.02,13.6-18.55-2.88.25-8.57,7.09-86.47,78.86-111.86,21.98-9.52,45.04-15.1,68.33-19.74,29.75-5.93,55.97,21.88,47.86,51.2-5.14,18.56-6.95,37.17-6.85,56.23.1,20.31.51,40.67-.65,60.93-3.17,55.43-29.44,96.74-78.21,123.36-24.77,13.52-51.52,18.33-79.59,16.03-1.14-.09-2.29-.07-4.33-.12,0,0-23.12-5.03-24.93-5.59Z"/>
          </g>
        </g>
      </g>
    </g>
  </g>
</svg>